HIERARCHY
ROOT Hips
{
 OFFSET 0.000000 0.000000 0.000000
 CHANNELS 6 Xposition Yposition Zposition Yrotation Xrotation Zrotation
 JOINT Chest
 {
  OFFSET 0.000000 9.585900 0.002600
  CHANNELS 3 Yrotation Xrotation Zrotation
  JOINT Chest2
  {
   OFFSET 0.000000 9.601200 -0.005300
   CHANNELS 3 Yrotation Xrotation Zrotation
   JOINT Chest3
   {
    OFFSET 0.000000 9.561800 0.000000
    CHANNELS 3 Yrotation Xrotation Zrotation
    JOINT Chest4
    {
     OFFSET 0.000000 9.552100 0.000000
     CHANNELS 3 Yrotation Xrotation Zrotation
     JOINT Neck
     {
      OFFSET 0.000000 14.453000 0.000000
      CHANNELS 3 Yrotation Xrotation Zrotation
      JOINT Head
      {
       OFFSET 0.000000 8.936500 -0.011300
       CHANNELS 3 Yrotation Xrotation Zrotation
       End Site
       {
        OFFSET 0.000000 17.073600 -0.006000
       }
      }
     }
     JOINT RightCollar
     {
      OFFSET -2.921100 9.558500 0.000000
      CHANNELS 3 Yrotation Xrotation Zrotation
      JOINT RightShoulder
      {
       OFFSET -13.519700 0.000000 0.000000
       CHANNELS 3 Yrotation Xrotation Zrotation
       JOINT RightElbow
       {
        OFFSET 0.000000 -29.696600 0.000000
        CHANNELS 3 Yrotation Xrotation Zrotation
        JOINT RightWrist
        {
         OFFSET 0.000000 -24.004700 0.000000
         CHANNELS 3 Yrotation Xrotation Zrotation
         End Site
         {
          OFFSET 0.000000 -17.728500 0.000000
         }
        }
       }
      }
     }
     JOINT LeftCollar
     {
      OFFSET 2.921100 9.558500 0.000000
      CHANNELS 3 Yrotation Xrotation Zrotation
      JOINT LeftShoulder
      {
       OFFSET 13.519700 0.000000 0.000000
       CHANNELS 3 Yrotation Xrotation Zrotation
       JOINT LeftElbow
       {
        OFFSET 0.000000 -29.696600 0.000000
        CHANNELS 3 Yrotation Xrotation Zrotation
        JOINT LeftWrist
        {
         OFFSET 0.000000 -24.004700 0.000000
         CHANNELS 3 Yrotation Xrotation Zrotation
         End Site
         {
          OFFSET 0.000000 -17.728500 0.000000
         }
        }
       }
      }
     }
    }
   }
  }
 }
 JOINT RightHip
 {
  OFFSET -7.771700 -0.012900 -0.001300
  CHANNELS 3 Yrotation Xrotation Zrotation
  JOINT RightKnee
  {
   OFFSET 0.000000 -40.869800 0.001200
   CHANNELS 3 Yrotation Xrotation Zrotation
   JOINT RightAnkle
   {
    OFFSET 0.000000 -39.717900 0.002100
    CHANNELS 3 Yrotation Xrotation Zrotation
    JOINT RightToe
    {
     OFFSET 0.000000 -4.965400 11.033500
     CHANNELS 3 Yrotation Xrotation Zrotation
     End Site
     {
      OFFSET 0.000000 -1.423100 5.872300
     }
    }
   }
  }
 }
 JOINT LeftHip
 {
  OFFSET 7.771700 -0.012900 -0.001300
  CHANNELS 3 Yrotation Xrotation Zrotation
  JOINT LeftKnee
  {
   OFFSET 0.000000 -40.869800 0.001200
   CHANNELS 3 Yrotation Xrotation Zrotation
   JOINT LeftAnkle
   {
    OFFSET 0.000000 -39.717900 0.002100
    CHANNELS 3 Yrotation Xrotation Zrotation
    JOINT LeftToe
    {
     OFFSET 0.000000 -4.965400 11.033500
     CHANNELS 3 Yrotation Xrotation Zrotation
     End Site
     {
      OFFSET 0.000000 -1.423100 5.872300
     }
    }
   }
  }
 }
}
MOTION
Frames: 8
Frame Time: 0.008333
0.000000 85.388000 0.000000 0.000000 -5.767877 0.000000 0.000000 11.653817 0.000000 0.000000 -5.885947 0.000000 0.000000 -0.000000 0.000000 0.000000 -0.000000 0.000000 0.000000 12.528835 0.000000 0.000000 0.711642 0.000000 0.000000 -0.000000 0.000000 0.000000 0.000000 -90.000000 0.000000 -2.309062 0.000000 0.000000 2.309062 0.000000 0.000000 -0.000000 0.000000 0.000000 -0.000000 90.000000 0.000000 -2.309062 0.000000 0.000000 2.309062 0.000000 0.000000 8.520406 0.000000 0.000000 1.905762 0.000000 -0.000000 -4.658285 0.000000 0.000000 -0.000000 0.000000 0.000000 8.520406 0.000000 0.000000 1.905762 0.000000 -0.000000 -4.658285 0.000000 0.000000 -0.000000 0.000000
-215.978116 56.915627 135.173033 177.730294 -38.481478 -0.055579 0.998123 22.356101 2.423217 0.076803 3.140516 0.383160 0.135174 5.091294 0.624024 0.808092 18.863129 2.444781 -2.185877 16.774385 -1.878200 -3.397752 -4.658037 -2.721644 3.798856 0.845547 -1.517676 14.655156 -20.360304 -16.929633 165.522641 -76.029810 -136.304130 14.098161 -15.323984 -46.817841 -7.155683 -1.141661 -1.805828 3.246781 -10.094778 -0.672079 -171.437898 -81.478258 141.058808 -11.975210 -1.038106 10.699757 8.793401 -38.339463 -8.071755 -14.800301 67.244099 -16.051001 0.617223 28.116685 -5.823652 -1.870162 -15.359169 14.925597 -10.533347 -36.069476 1.316778 31.444087 68.894640 31.285047 -13.429112 7.002398 -5.059310 0.560099 0.342624 0.171513
-215.966958 56.917125 135.177916 177.732195 -38.527360 -0.088195 1.024507 22.399637 2.389465 0.079520 3.150788 0.376599 0.139498 5.107196 0.613340 0.818428 18.890942 2.402389 -2.204898 16.842175 -1.654831 -3.510498 -4.529326 -2.302409 3.813884 0.813295 -1.515266 14.709463 -20.361577 -17.000084 165.412459 -76.017890 -136.199018 14.124940 -15.332902 -46.839311 -7.139637 -1.177798 -1.803950 3.249797 -10.105533 -0.614025 -171.284430 -81.403266 140.896314 -11.987276 -1.028339 10.670224 8.810072 -38.278184 -8.033271 -14.808912 67.213891 -16.033369 0.596795 28.128256 -5.817792 -1.860845 -15.361064 14.923380 -10.590549 -36.024896 1.370846 31.480765 68.889708 31.298067 -13.420690 7.055657 -5.030519 0.555092 0.333840 0.154833
-215.950244 56.914009 135.189059 177.712677 -38.535773 -0.138592 1.080492 22.403719 2.386279 0.082586 3.161496 0.369690 0.144347 5.123610 0.602141 0.830557 18.919636 2.358296 -2.223913 16.897481 -1.433008 -3.622182 -4.423024 -1.886198 3.814975 0.784869 -1.513559 14.761569 -20.364965 -17.061512 165.294863 -76.005308 -136.081678 14.152073 -15.351735 -46.862615 -7.127174 -1.209760 -1.798730 3.254778 -10.118914 -0.550414 -171.235576 -81.345289 140.821780 -11.998865 -1.022767 10.648929 8.795315 -38.268919 -7.954147 -14.750486 67.181629 -15.967642 0.579458 28.152988 -5.806575 -1.864067 -15.359899 14.916542 -10.687854 -36.014117 1.493240 31.531521 68.893941 31.300495 -13.356128 7.115188 -4.993167 0.506317 0.350825 0.156034
-215.939140 56.911841 135.198251 177.731159 -38.560192 -0.178298 1.094076 22.423903 2.345116 0.078476 3.168389 0.405664 0.153065 5.144472 0.546657 0.843870 18.948773 2.312477 -2.244043 16.940599 -1.213571 -3.734745 -4.338561 -1.474110 3.805540 0.761768 -1.511709 14.803682 -20.372493 -17.112234 165.160933 -75.992219 -135.941734 14.188598 -15.393738 -46.900131 -7.119205 -1.238448 -1.789437 3.252671 -10.128409 -0.488594 -171.242656 -81.299015 140.800830 -12.007417 -1.020932 10.635933 8.777934 -38.240689 -7.917263 -14.766715 67.165470 -15.969481 0.577595 28.150333 -5.803144 -1.864271 -15.349094 14.914601 -10.827463 -36.001730 1.596277 31.624586 68.907972 31.315875 -13.352870 7.151477 -4.995828 0.500131 0.334273 0.158216
-215.929897 56.911641 135.203704 177.731041 -38.610306 -0.197427 1.119640 22.470663 2.293643 0.074164 3.174665 0.442947 0.162539 5.165441 0.489075 0.858543 18.977274 2.265225 -2.266169 16.972968 -0.996536 -3.849920 -4.273467 -1.065873 3.789229 0.745822 -1.507686 14.832775 -20.381689 -17.154469 165.003661 -75.974397 -135.774211 14.245510 -15.457887 -46.964673 -7.118025 -1.262846 -1.777592 3.259126 -10.136319 -0.426815 -171.336378 -81.269229 140.855118 -12.048167 -0.993687 10.626022 8.768831 -38.188314 -7.885573 -14.766754 67.155123 -15.961107 0.579700 28.147417 -5.796846 -1.863541 -15.346016 14.908945 -10.856641 -35.954457 1.623060 31.648546 68.907851 31.335629 -13.351130 7.173001 -4.983084 0.492602 0.329609 0.141041
-215.921697 56.910360 135.208767 177.732193 -38.656744 -0.217293 1.144094 22.515380 2.239569 0.090040 3.190756 0.369610 0.163300 5.175019 0.543309 0.876108 19.004476 2.217870 -2.291284 16.996122 -0.782004 -3.969611 -4.224940 -0.661260 3.768105 0.736157 -1.501274 14.846146 -20.386942 -17.186610 164.824518 -75.944170 -135.582226 14.323519 -15.530620 -47.052871 -7.123150 -1.282499 -1.764676 3.257816 -10.145772 -0.362916 -171.490154 -81.258478 140.973297 -12.031275 -1.013910 10.624682 8.760769 -38.140376 -7.856775 -14.775694 67.145062 -15.958674 0.577378 28.145318 -5.793454 -1.859666 -15.343235 14.902732 -10.883704 -35.910801 1.647984 31.656478 68.913696 31.342294 -13.336728 7.180317 -4.981902 0.500860 0.367893 0.160557
-215.913049 56.907627 135.213692 177.726281 -38.695560 -0.244457 1.178361 22.553555 2.195565 0.098118 3.203096 0.339864 0.168668 5.187603 0.553821 0.895807 19.030559 2.172266 -2.320281 17.011691 -0.571734 -4.095046 -4.189772 -0.263062 3.745741 0.730641 -1.494755 14.842257 -20.385259 -17.206329 164.625781 -75.895009 -135.369311 14.407574 -15.599554 -47.148048 -7.132201 -1.299179 -1.750699 3.260173 -10.152408 -0.303009 -171.714938 -81.261768 141.151938 -12.066986 -1.007366 10.632537 8.759541 -38.098500 -7.818886 -14.786879 67.129395 -15.948471 0.557373 28.142266 -5.798762 -1.843893 -15.341822 14.895217 -10.919114 -35.877757 1.687810 31.680202 68.924912 31.360368 -13.304308 7.197964 -4.964984 0.475865 0.357346 0.140962
